# xmcd
#
# Track frame offsets: 
#        150
#        23337
#        44170
#        76582
#        100095
#        117000
#        141482
#        158048
#        180879
#        198798
#
# Disc length: 3004 seconds
#
# Revision: 0
# Processed by: cddbd v1.5.2PL0 Copyright (c) Steve Scherf et al.
# Submitted via: ExactAudioCopyFreeDBPlugin 1.0
#
DISCID=6d0bba0a
DTITLE=关栋天 - 伶歌 The Song of Songs
DYEAR=2008
DGENRE=National Folk
TTITLE0=将进酒
TTITLE1=丑未寅初
TTITLE2=江河水
TTITLE3=梅花三弄
TTITLE4=悯农
TTITLE5=苏武牧羊
TTITLE6=小放牛
TTITLE7=渔舟唱晚
TTITLE8=关山月
TTITLE9=满江红
EXTD=
EXTT0=
EXTT1=
EXTT2=
EXTT3=
EXTT4=
EXTT5=
EXTT6=
EXTT7=
EXTT8=
EXTT9=
PLAYORDER=
